<svg width="512" height="512" viewBox="0 0 512 512" xmlns="http://www.w3.org/2000/svg">
  <defs>
    <linearGradient id="g" x1="0%" y1="0%" x2="100%" y2="100%">
      <stop offset="0%" stop-color="#8B5CF6" />
      <stop offset="50%" stop-color="#06B6D4" />
      <stop offset="100%" stop-color="#EC4899" />
    </linearGradient>
  </defs>
  <rect width="512" height="512" rx="120" fill="#0E0E10" />
  <path
    d="M140 256c0-64 52-116 116-116s116 52 116 116-52 116-116 116-116-52-116-116zm77 0c0 22 17 39 39 39s39-17 39-39-17-39-39-39-39 17-39 39zm190-112-32-32-48 48 32 32 48-48zm-302 0 48 48 32-32-48-48-32 32z"
    fill="url(#g)"
  />
</svg>
